<?xml version="1.0" encoding="iso-8859-1"?>
<!-- Generator: Adobe Illustrator 19.0.0, SVG Export Plug-In . SVG Version: 6.00 Build 0)  -->
<svg version="1.1" id="Capa_1" xmlns="http://www.w3.org/2000/svg" xmlns:xlink="http://www.w3.org/1999/xlink" x="0px" y="0px"
	 viewBox="0 0 489.9 489.9" style="enable-background:new 0 0 489.9 489.9;" xml:space="preserve">
<g>
	<g>
		<g>
			<path d="M246.9,186.7c0-23.3,18.7-42,42-42H425c35.8,0,64.9-29.2,64.9-64.9s-29.1-65-64.9-65H153.2c-5.4,0-9.7,4.3-9.7,9.7
				s4.3,9.7,9.7,9.7H425c24.9,0,45.5,20.2,45.5,45.5c0,24.9-20.2,45.5-45.5,45.5H288.9c-33.8,0-61.4,27.6-61.4,61.4v48.6H0v239.9
				h480.2V235.3H246.9V186.7z M222.8,335.6h34.6v39.7h-34.6L222.8,335.6z M159.1,267.6h34.6v39.7h-34.6V267.6z M159.1,335.6h34.6
				v39.7h-34.6V335.6z M94.9,267.6h34.6v39.7H94.9V267.6z M94.9,335.6h34.6v39.7H94.9V335.6z M65.8,442.9H31.1v-39.7h34.6v39.7H65.8
				z M65.8,374.9H31.1v-39.3h34.6v39.3H65.8z M65.8,307.2H31.1v-39.7h34.6v39.7H65.8z M321.2,442.9H94.9v-39.7h226.3V442.9z
				 M414.5,267.6h34.6v39.7h-34.6V267.6z M414.5,335.6h34.6v107.3h-34.6V335.6z M350.8,267.6h34.6v39.7h-34.6V267.6z M350.8,335.6
				h34.6v39.7h-34.6V335.6z M350.8,403.3h34.6V443h-34.6V403.3z M286.6,267.6h34.6v39.7h-34.6V267.6z M286.6,335.6h34.6v39.7h-34.6
				V335.6z M257.4,307.2h-34.6v-39.7h34.6V307.2z"/>
		</g>
	</g>
</g>
<g>
</g>
<g>
</g>
<g>
</g>
<g>
</g>
<g>
</g>
<g>
</g>
<g>
</g>
<g>
</g>
<g>
</g>
<g>
</g>
<g>
</g>
<g>
</g>
<g>
</g>
<g>
</g>
<g>
</g>
</svg>
